<?xml version="1.0" encoding="UTF-8" standalone="no"?>
<!DOCTYPE svg PUBLIC "-//W3C//DTD SVG 20010904//EN" "http://www.w3.org/TR/2001/REC-SVG-20010904/DTD/svg10.dtd">
<svg version="1.0" xmlns="http://www.w3.org/2000/svg" width="300.000000pt" height="257.000000pt" viewBox="0 0 300.000000 257.000000" preserveAspectRatio="xMidYMid meet">
<metadata>
Created by potrace 1.10, written by Peter Selinger 2001-2011
</metadata>
<g transform="translate(0.000000,257.000000) scale(0.100000,-0.100000)" fill="#000000" stroke="none">
<path d="M1978 2296 c-56 -20 -113 -71 -137 -121 -33 -69 -27 -96 31 -164 l29 -33 -24 -27 c-58 -62 -77 -101 -77 -163 0 -84 26 -129 101 -178 67 -43 146 -70 206 -70 74 0 182 -41 222 -84 38 -42 61 -96 61 -145 0 -41 -26 -186 -59 -324 -15 -63 -24 -69 -231 -165 -123 -57 -185 -108 -227 -189 -47 -88 -58 -141 -43 -216 6 -34 20 -78 30 -98 80 -157 395 -160 497 -5 37 56 83 195 83 248 0 21 -7 82 -16 137 -20 130 -8 180 64 261 51 57 77 102 112 190 18 45 65 122 137 224 31 43 56 130 48 169 -3 17 -13 56 -22 85 -15 44 -15 59 -5 97 17 65 15 83 -13 110 -32 33 -42 31 -62 -10 -9 -19 -22 -35 -28 -35 -6 0 -26 16 -45 35 -45 46 -154 112 -236 141 -67 25 -128 29 -201 15 -24 -5 -54 -6 -69 -3 -33 6 -43 31 -18 45 10 6 40 30 65 54 49 46 69 51 109 28 14 -8 41 -14 61 -15 22 0 51 -10 75 -26 21 -14 61 -37 89 -50 29 -14 58 -37 68 -53 21 -36 76 -71 111 -71 62 0 55 91 -10 129 -18 11 -42 38 -53 60 -21 41 -51 66 -112 94 -19 9 -44 26 -55 38 -47 52 -127 64 -189 29 -46 -26 -47 -26 -86 11 -60 57 -112 70 -181 45z"/>
<path d="M930 2283 c-14 -9 -39 -29 -56 -45 l-31 -29 -48 25 c-77 41 -139 30 -204 -38 -19 -20 -43 -36 -53 -36 -27 0 -94 -65 -104 -102 -5 -18 -20 -38 -32 -44 -13 -6 -34 -22 -48 -35 -23 -21 -25 -30 -21 -74 5 -48 4 -52 -22 -63 -49 -22 -63 -76 -34 -136 14 -31 15 -43 3 -105 -23 -125 -3 -184 113 -333 29 -36 73 -109 99 -161 27 -51 70 -120 98 -151 84 -96 85 -100 82 -271 -2 -129 0 -158 18 -214 35 -106 76 -178 122 -211 112 -81 308 -80 396 4 39 37 56 71 73 147 15 71 7 112 -37 197 -61 116 -113 158 -288 228 -134 53 -165 76 -195 139 -40 86 -75 265 -68 353 4 53 10 69 41 106 47 58 106 85 220 101 114 16 170 41 230 100 88 89 85 199 -9 304 l-35 38 26 24 c33 31 54 71 54 104 0 63 -61 144 -135 180 -44 20 -124 19 -155 -2z m-64 -184 c10 -12 43 -39 72 -61 43 -32 51 -42 41 -54 -14 -17 -79 -18 -146 -3 -91 21 -246 -36 -373 -138 l-65 -53 -18 21 c-26 32 -21 45 26 58 54 17 64 25 87 76 15 34 26 44 60 54 23 7 58 27 78 45 28 25 49 34 90 39 29 3 62 13 74 22 30 21 51 19 74 -6z"/>
</g>
</svg>